<?xml version="1.0" ?><!DOCTYPE svg  PUBLIC '-//W3C//DTD SVG 1.1//EN'  'http://www.w3.org/Graphics/SVG/1.1/DTD/svg11.dtd'><svg height="100%" style="fill-rule:evenodd;clip-rule:evenodd;stroke-linejoin:round;stroke-miterlimit:2;" version="1.1" viewBox="0 0 32 32" width="100%" xml:space="preserve" xmlns="http://www.w3.org/2000/svg" xmlns:serif="http://www.serif.com/" xmlns:xlink="http://www.w3.org/1999/xlink"><path d="M16.08,2c-7.726,0 -14,6.273 -14,14c0,7.727 6.274,14 14,14c7.727,0 14,-6.273 14,-14c0,-7.727 -6.273,-14 -14,-14Zm4.283,7.609c2.238,1.385 3.728,3.822 3.728,6.6c0,4.317 -3.595,7.81 -8.011,7.81c-4.415,-0 -8.011,-3.493 -8.011,-7.81c0,-3.473 2.331,-6.415 5.54,-7.43c0.527,-0.167 0.819,-0.729 0.652,-1.255c-0.166,-0.527 -0.729,-0.819 -1.255,-0.652c-4.027,1.274 -6.937,4.978 -6.937,9.337c0,5.408 4.48,9.81 10.011,9.81c5.532,-0 10.011,-4.402 10.011,-9.81c0,-3.356 -1.724,-6.324 -4.355,-8.093l0.5,-0.128c0.535,-0.137 0.858,-0.682 0.721,-1.217c-0.136,-0.534 -0.681,-0.858 -1.216,-0.721l-3.165,0.809c-0.261,0.067 -0.484,0.236 -0.619,0.469c-0.134,0.233 -0.169,0.511 -0.096,0.77l0.848,3.019c0.149,0.532 0.702,0.842 1.233,0.692c0.531,-0.149 0.842,-0.701 0.692,-1.233l-0.271,-0.967Z"/></svg>